<svg width="180" height="41" viewBox="0 0 180 41" fill="none" xmlns="http://www.w3.org/2000/svg">
    <!-- Letter B -->
    <path d="M0 0.728001V39.928H22.064V32.032H8.4V0.728001H0Z" fill="white"/>
    <!-- Letter U -->
    <path d="M31 0V40H38V9.67206C43.6401 4.67206 49.6786 0 59 0V7C53.9155 7 48.9446 11.7524 48.9446 20C48.9446 28.2476 53.9155 33 59 33V40H60.5V33C67.5585 33 71.6432 28.5156 71.6432 20C71.6432 11.4844 67.5585 7 60.5 7V0H59V7C49.6786 7 43.6401 2.32794 38 0Z" fill="white"/>
    <!-- Letter K -->
    <path d="M90 0V40H97V21.824L110 35.12V27.776L97.0643 16L111 0H103L90 15.776V0H90Z" fill="white"/>
    <!-- Letter H -->
    <path d="M132 0V40H139V25H156V40H163V0H156V15H139V0H132Z" fill="white"/>
    <!-- Letter O -->
    <path d="M168.5 20.5C168.5 9.775 158.05 0 146 0C133.95 0 123.5 9.775 123.5 20.5C123.5 31.225 133.95 41 146 41C158.05 41 168.5 31.225 168.5 20.5ZM146 31C153.053 31 158.5 25.582 158.5 20.5C158.5 15.418 153.053 10 146 10C138.947 10 133.5 15.418 133.5 20.5C133.5 25.582 138.947 31 146 31Z" fill="white"/>
</svg>
